:version 1.10
:name ASF
:units
  mass 1
  length 1
  angle deg
:documentation
  ASF file generated by Kaydara
:root
  axis xyz
  order  tx ty tz rx ry rz
  position 0 0 0
  orientation 0 0 0
:bonedata
  begin
    id 1
    name RightUpLegDummy
    direction -0.718183 -0.695806 0.00816078
    length 4.904
    axis 0 0 0 xyz
  end
  begin
    id 2
    name RightUpLeg
    direction 3.53373e-006 -0.995788 0.0916898
    length 17.4976
    axis -3.49089 -0.000906625 0.000286804 xyz
    dof rx ry rz
  end
  begin
    id 3
    name RightLeg
    direction 0.00371092 -0.995096 -0.0988419
    length 16.5821
    axis 3.68512 0.0193738 -0.131023 xyz
    dof rx ry rz
  end
  begin
    id 4
    name RightFoot
    direction 0.00079151 -0.46099 0.887405
    length 3.77069
    axis 4.81691e-005 -0.120479 -0.188788 xyz
    dof rx ry rz
  end
  begin
    id 5
    name RightToes
    direction 0 0 0
    length 0
    axis 0 0 0 xyz
    dof rx ry rz
  end
  begin
    id 6
    name SpineDummy
    direction 8.3039e-015 1 4.57515e-016
    length 4.6813
    axis 0 0 0 xyz
  end
  begin
    id 7
    name Spine
    direction -3.15643e-008 0.999988 0.00495137
    length 10.1015
    axis -0.001389 0.000121418 2.40972e-006 xyz
    dof rx ry rz
  end
  begin
    id 8
    name Spine1
    direction 0 0 0
    length 0
    axis -0.001389 0.000121451 1.30017e-006 xyz
    dof rx ry rz
  end
  begin
    id 9
    name HEadDummy
    direction -1.99912e-008 0.999999 0.00127422
    length 3.43865
    axis -0.001389 0.000121451 1.30017e-006 xyz
  end
  begin
    id 10
    name HEad
    direction 0 0 0
    length 0
    axis 0 0 0 xyz
    dof rx ry rz
  end
  begin
    id 11
    name LeftShoulder1Dummy
    direction 0.998891 -0.0402509 -0.0244456
    length 3.5433
    axis -0.001389 0.000121451 1.30017e-006 xyz
  end
  begin
    id 12
    name LeftShoulder1
    direction 0.99951 -0.000327763 0.0313091
    length 4.05031
    axis -0.001389 0.000121451 1.30017e-006 xyz
    dof rx ry rz
  end
  begin
    id 13
    name LeftArm
    direction 0.998561 -0.00100056 -0.0536182
    length 10.3537
    axis -23.1894 0.134784 0.967509 xyz
    dof rx ry rz
  end
  begin
    id 14
    name LeftForeArm
    direction 0.998903 0.00866432 0.046012
    length 8.70632
    axis -9.91835 -0.06569 -0.177794 xyz
    dof rx ry rz
  end
  begin
    id 15
    name LeftHand
    direction 0 0 0
    length 0
    axis 0 0 0 xyz
    dof rx ry rz
  end
  begin
    id 16
    name RightShoulderDummy
    direction -0.998891 -0.0402509 -0.0244414
    length 3.5433
    axis -0.001389 0.000121451 1.30017e-006 xyz
  end
  begin
    id 17
    name RightShoulder
    direction -0.99951 -0.000327807 0.0313133
    length 4.05031
    axis 0.215806 0.000203643 -0.0068026 xyz
    dof rx ry rz
  end
  begin
    id 18
    name RightArm
    direction -0.998573 -0.000999564 -0.053403
    length 10.3947
    axis -23.2009 -0.134239 -0.964101 xyz
    dof rx ry rz
  end
  begin
    id 19
    name RightForeArm
    direction -0.998898 0.00868028 0.0461306
    length 8.68355
    axis -9.92322 0.0658061 0.178868 xyz
    dof rx ry rz
  end
  begin
    id 20
    name RightHand
    direction 0 0 0
    length 0
    axis 0 0 0 xyz
    dof rx ry rz
  end
  begin
    id 21
    name LeftUpLegDummy
    direction 0.718183 -0.695806 0.00816078
    length 4.904
    axis 0 0 0 xyz
  end
  begin
    id 22
    name LeftUpLeg
    direction -6.81752e-006 -0.995793 0.0916337
    length 17.4976
    axis -3.48766 0.00143442 -0.000524262 xyz
    dof rx ry rz
  end
  begin
    id 23
    name LeftLeg
    direction -0.00601358 -0.995091 -0.0987824
    length 16.5821
    axis 3.68178 -0.00654042 -0.000285133 xyz
    dof rx ry rz
  end
  begin
    id 24
    name LeftFoot
    direction -0.00417578 -0.460984 0.887399
    length 3.77069
    axis 1.87233e-006 4.66016e-005 -8.6538e-006 xyz
    dof rx ry rz
  end
  begin
    id 25
    name LeftToes
    direction 0 0 0
    length 0
    axis 0 0 0 xyz
    dof rx ry rz
  end
:hierarchy
  begin
    root RightUpLegDummy SpineDummy LeftUpLegDummy
    RightUpLegDummy RightUpLeg
    RightUpLeg RightLeg
    RightLeg RightFoot
    RightFoot RightToes
    SpineDummy Spine
    Spine Spine1
    Spine1 HEadDummy LeftShoulder1Dummy RightShoulderDummy
    HEadDummy HEad
    LeftShoulder1Dummy LeftShoulder1
    LeftShoulder1 LeftArm
    LeftArm LeftForeArm
    LeftForeArm LeftHand
    RightShoulderDummy RightShoulder
    RightShoulder RightArm
    RightArm RightForeArm
    RightForeArm RightHand
    LeftUpLegDummy LeftUpLeg
    LeftUpLeg LeftLeg
    LeftLeg LeftFoot
    LeftFoot LeftToes
  end

:SAMPLES-PER-SECOND 30
:FULLY-SPECIFIED
:DEGREES
64
root  54.4591 40.1642 -2.45225 -162.022 -84.9094 159.7
RightUpLeg  7.2236 -13.9793 -6.4682
RightLeg  15.5217 0.341389 5.23788
RightFoot  -9.20972 -0.110833 2.61237
RightToes  0.000481921 0.542163 -0.142578
Spine  4.0838 3.30585 10.1418
Spine1  6.06721 6.57048 -10.5793
HEad  -19.4086 2.47929 -13.8433
LeftShoulder1  8.4516 -12.9927 -44.6295
LeftArm  -0.407221 40.6253 -9.26813
LeftForeArm  25.7058 -8.13405 -5.50814
LeftHand  -0.25398 0.0180481 5.50724
RightShoulder  4.604 8.12431 33.6481
RightArm  -11.4654 4.92974 33.8584
RightForeArm  -29.931 33.4159 8.89456
RightHand  -1.72333 6.44595 -17.1839
LeftUpLeg  -21.3206 11.5107 0.0113452
LeftLeg  36.9157 2.23143 2.17796
LeftFoot  -2.66694 0.621741 -7.97707
LeftToes  1.06246e-005 4.65868e-005 -8.65514e-006
65
root  53.3582 40.108 -2.59864 -160.241 -84.3381 157.888
RightUpLeg  9.81037 -13.4394 -7.51647
RightLeg  14.1312 1.01992 5.71377
RightFoot  -9.49076 -0.115188 3.15165
RightToes  0.000481921 0.542163 -0.142578
Spine  4.13459 3.87588 9.8531
Spine1  6.31101 7.25135 -11.3194
HEad  -19.6098 2.09372 -14.5774
LeftShoulder1  8.07839 -12.7115 -43.3343
LeftArm  1.28211 44.9142 -8.09601
LeftForeArm  25.1994 -9.05081 -5.47721
LeftHand  -0.25398 0.0180481 5.50724
RightShoulder  4.502 7.98627 33.2381
RightArm  -12.894 6.90717 32.0529
RightForeArm  -27.3392 37.2669 9.95835
RightHand  -1.81016 6.54735 -17.8745
LeftUpLeg  -21.0912 12.6559 -1.21899
LeftLeg  27.0313 0.640379 0.731612
LeftFoot  -1.21159 0.678264 -7.58881
LeftToes  1.06246e-005 4.65868e-005 -8.65514e-006
66
root  52.2079 39.957 -2.71795 -157.838 -83.9467 155.486
RightUpLeg  12.3335 -13.4023 -8.66786
RightLeg  13.1438 2.041 6.00126
RightFoot  -10.5026 -0.0997891 4.02515
RightToes  0.000481921 0.542163 -0.142578
Spine  3.87659 4.22652 9.30611
Spine1  6.92988 7.706 -11.7376
HEad  -19.9267 1.58632 -15.4715
LeftShoulder1  7.73402 -12.3206 -42.4607
LeftArm  1.79763 48.072 -7.65229
LeftForeArm  24.5085 -8.51439 -5.17304
LeftHand  -0.25398 0.0180481 5.50724
RightShoulder  4.38731 7.78101 32.936
RightArm  -14.0168 8.74732 30.4891
RightForeArm  -25.0299 40.341 10.8929
RightHand  -1.80516 6.47702 -17.9238
LeftUpLeg  -20.6856 13.4246 -2.53395
LeftLeg  18.0468 -0.246791 0.0176429
LeftFoot  0.125899 0.645923 -6.42771
LeftToes  1.06246e-005 4.65868e-005 -8.65514e-006
67
root  50.9813 39.7171 -2.79469 -154.83 -84.0059 152.385
RightUpLeg  14.8945 -13.9071 -9.93095
RightLeg  12.7899 3.39015 6.19178
RightFoot  -11.7352 -0.0616353 5.32188
RightToes  0.000481921 0.542163 -0.142578
Spine  3.61778 4.23231 8.76681
Spine1  7.33945 7.78322 -12.0086
HEad  -20.0494 1.49557 -16.1013
LeftShoulder1  7.52277 -12.0184 -42.0793
LeftArm  1.56204 50.1535 -7.89465
LeftForeArm  22.7443 -6.26273 -4.68452
LeftHand  -0.25398 0.0180481 5.50724
RightShoulder  4.3445 7.66884 32.9427
RightArm  -14.9048 9.66934 29.3466
RightForeArm  -23.3025 42.9001 11.7603
RightHand  -1.69072 6.02909 -17.4564
LeftUpLeg  -20.184 11.9433 -2.83687
LeftLeg  11.7257 2.69792 -0.741308
LeftFoot  0.279148 0.61652 -6.07086
LeftToes  1.06246e-005 4.65868e-005 -8.65514e-006
68
root  49.6422 39.4082 -2.82887 -152.02 -84.48 149.411
RightUpLeg  17.257 -14.9931 -11.1539
RightLeg  13.5684 5.07241 6.14472
RightFoot  -12.5418 -0.0182403 6.44217
RightToes  0.000481921 0.542163 -0.142578
Spine  3.26964 4.02382 8.53127
Spine1  7.46162 7.62195 -12.2886
HEad  -19.9284 1.57325 -16.4542
LeftShoulder1  7.4952 -11.9594 -42.0842
LeftArm  0.991666 51.3077 -8.80627
LeftForeArm  19.8467 -3.44007 -4.24921
LeftHand  -0.25398 0.0180481 5.50724
RightShoulder  4.37314 7.66771 33.2019
RightArm  -15.5877 9.06331 28.8808
RightForeArm  -22.1575 45.2791 12.6677
RightHand  -1.63994 5.72285 -17.3924
LeftUpLeg  -19.8331 8.97094 -2.42495
LeftLeg  9.22446 7.95727 -1.71679
LeftFoot  -0.151616 0.546952 -5.56091
LeftToes  1.06246e-005 4.65868e-005 -8.65514e-006
69
root  48.1739 39.0643 -2.84346 -147.894 -84.9843 145.134
RightUpLeg  19.3123 -16.8209 -12.5973
RightLeg  15.4653 7.41818 5.62552
RightFoot  -13.051 0.0316436 7.89043
RightToes  0.000481921 0.542163 -0.142578
Spine  2.47675 3.81798 8.02222
Spine1  7.75068 7.41016 -12.3076
HEad  -19.9418 1.54838 -16.6128
LeftShoulder1  7.59055 -12.0582 -42.3678
LeftArm  -0.0742058 51.8062 -10.2826
LeftForeArm  16.8905 -1.86459 -3.95701
LeftHand  -0.25398 0.0180481 5.50724
RightShoulder  4.40502 7.67683 33.454
RightArm  -15.626 7.03627 29.24
RightForeArm  -21.7233 47.3106 13.5423
RightHand  -1.70662 5.85705 -17.8684
LeftUpLeg  -20.146 10.0784 -4.13763
LeftLeg  10.6191 7.64722 -1.11285
LeftFoot  0.454965 0.304661 -3.04098
LeftToes  1.06246e-005 4.65868e-005 -8.65514e-006
70
root  46.614 38.7084 -2.85484 -139.995 -85.0983 136.905
RightUpLeg  20.7954 -18.5062 -14.3846
RightLeg  18.7427 9.82392 4.68171
RightFoot  -13.3077 0.101378 11.1247
RightToes  0.000481921 0.542163 -0.142578
Spine  1.60953 3.66413 6.56214
Spine1  8.15387 7.14868 -11.9052
HEad  -20.4235 1.56419 -16.5704
LeftShoulder1  7.7237 -12.131 -42.9467
LeftArm  -1.51219 51.449 -11.8158
LeftForeArm  15.0826 -1.97618 -3.77692
LeftHand  -0.25398 0.0180481 5.50724
RightShoulder  4.43858 7.68045 33.7393
RightArm  -14.793 3.89043 30.2372
RightForeArm  -21.7213 48.5152 14.1129
RightHand  -1.74386 5.9499 -18.1024
LeftUpLeg  -20.6437 11.9793 -6.83552
LeftLeg  14.6859 4.60402 0.612244
LeftFoot  1.9296 -0.181143 1.45863
LeftToes  1.06246e-005 4.65868e-005 -8.65514e-006
71
root  45.0547 38.3958 -2.85774 -130.556 -84.6452 126.569
RightUpLeg  20.4077 -16.4566 -15.1687
RightLeg  24.7979 8.51132 3.8718
RightFoot  -11.1123 -0.123627 15.364
RightToes  0.000481921 0.542163 -0.142578
Spine  1.80502 3.46549 4.64858
Spine1  8.0293 6.8505 -11.6289
HEad  -21.6541 1.54703 -16.2876
LeftShoulder1  7.86961 -12.1152 -43.8523
LeftArm  -2.83262 49.3134 -12.9321
LeftForeArm  14.9771 -2.58179 -3.80259
LeftHand  -0.25398 0.0180481 5.50724
RightShoulder  4.54357 7.77191 34.3414
RightArm  -13.5775 -0.222432 31.6587
RightForeArm  -21.5858 48.5323 14.1117
RightHand  -1.70315 5.77909 -17.9521
LeftUpLeg  -20.288 10.8371 -8.3914
LeftLeg  19.8189 4.31315 2.19024
LeftFoot  1.72581 -0.601076 5.20178
LeftToes  1.06246e-005 4.65868e-005 -8.65514e-006
72
root  43.6063 38.1919 -2.85 -125.206 -83.6386 119.725
RightUpLeg  17.2077 -11.7602 -15.1855
RightLeg  34.7341 4.61756 3.17348
RightFoot  -3.37037 -1.20506 17.1492
RightToes  0.000481921 0.542163 -0.142578
Spine  3.53448 3.21744 3.19196
Spine1  7.31451 6.67589 -12.0799
HEad  -23.6272 1.14022 -16.0723
LeftShoulder1  8.05506 -12.0872 -45.0194
LeftArm  -4.02948 44.6979 -13.9566
LeftForeArm  16.1878 -2.79043 -4.06578
LeftHand  -0.25398 0.0180481 5.50724
RightShoulder  4.72806 7.99196 35.1635
RightArm  -12.3036 -4.57643 33.6737
RightForeArm  -21.921 46.6883 13.2704
RightHand  -1.74166 5.976 -18.0382
LeftUpLeg  -18.6167 8.68549 -9.02683
LeftLeg  24.4927 6.35969 3.48614
LeftFoot  -1.38756 -0.526712 6.07428
LeftToes  1.06246e-005 4.65868e-005 -8.65514e-006
73
root  42.361 38.0594 -2.85227 -125.386 -82.1322 118.327
RightUpLeg  11.6082 -7.69602 -15.5857
RightLeg  46.5895 2.12679 2.10481
RightFoot  7.6528 -2.50755 15.3065
RightToes  0.000481921 0.542163 -0.142578
Spine  5.8983 3.03679 1.93004
Spine1  6.78292 6.58012 -12.9307
HEad  -25.5957 0.544602 -16.2804
LeftShoulder1  8.34866 -12.1827 -46.4229
LeftArm  -5.47661 38.0721 -15.4032
LeftForeArm  17.6836 -3.02805 -4.42733
LeftHand  -0.25398 0.0180481 5.50724
RightShoulder  4.9127 8.27913 35.7192
RightArm  -10.1435 -7.65081 36.4419
RightForeArm  -24.2305 41.4674 11.2915
RightHand  -1.86104 6.74601 -18.0779
LeftUpLeg  -16.2435 8.64659 -9.98982
LeftLeg  27.5921 7.46072 4.54963
LeftFoot  -5.51388 -0.236593 5.29095
LeftToes  1.06246e-005 4.65868e-005 -8.65514e-006
74
root  41.254 38.0058 -2.87682 -128.231 -80.8051 119.97
RightUpLeg  5.09171 -4.75471 -15.8528
RightLeg  57.1396 0.558412 0.471701
RightFoot  14.1648 -2.71642 12.3483
RightToes  0.000481921 0.542163 -0.142578
Spine  7.68152 2.81088 0.653204
Spine1  6.74697 6.17205 -13.1899
HEad  -26.9062 0.462174 -16.0519
LeftShoulder1  8.85174 -12.5429 -48.1465
LeftArm  -6.88761 30.4948 -16.8654
LeftForeArm  18.6662 -3.78798 -4.8391
LeftHand  -0.25398 0.0180481 5.50724
RightShoulder  5.07262 8.59377 35.9511
RightArm  -5.38483 -8.67556 39.42
RightForeArm  -28.6741 31.9564 8.36024
RightHand  -1.8079 7.19313 -16.9706
LeftUpLeg  -13.6232 9.4606 -10.6447
LeftLeg  28.9284 7.8221 5.00505
LeftFoot  -8.49607 -0.0665511 4.79734
LeftToes  1.06246e-005 4.65868e-005 -8.65514e-006
75
root  40.1005 38.2228 -2.90826 -130.642 -80.8604 121.587
RightUpLeg  -0.762486 -4.04907 -15.1951
RightLeg  64.1669 -0.90573 -2.63418
RightFoot  13.7557 -2.05478 9.59946
RightToes  0.000481921 0.542163 -0.142578
Spine  8.42677 2.1114 0.335397
Spine1  6.80538 5.19769 -12.3146
HEad  -26.6523 0.9741 -15.2247
LeftShoulder1  9.589 -13.2052 -50.0958
LeftArm  -7.37358 22.3358 -17.5693
LeftForeArm  19.5009 -4.69173 -5.49727
LeftHand  -0.25398 0.0180481 5.50724
RightShoulder  5.28706 8.96781 36.3995
RightArm  -1.97798 -8.88197 41.5143
RightForeArm  -29.305 19.6719 6.82562
RightHand  -1.601 6.88202 -15.482
LeftUpLeg  -10.1619 9.70066 -10.1318
LeftLeg  27.9206 7.90777 4.8711
LeftFoot  -9.85757 -0.00127037 4.67377
LeftToes  1.06246e-005 4.65868e-005 -8.65514e-006
